:SAMPLES-PER-SECOND 30
:FULLY-SPECIFIED
:DEGREES
169
root  1.55101 19.4878 -43.0989 43.1645 -9.30442 4.49629
RightUpLeg  -30.2499 -3.54933 3.1481
RightLeg  96.4063 17.9555 -12.5851
RightFoot  -18.3877 0.16275 2.29885
RightToes  5.82077e-011 -3.18055e-015 -2.98177e-016
Spine  52.8365 2.31946 -2.1551
Spine1  -13.2275 1.73782 -10.7882
HEad  -29.849 -10.2116 8.18133
LeftShoulder1  -3.88251e-019 9.70628e-020 -3.87848e-018
LeftArm  1.17592 -21.7892 -75.4714
LeftForeArm  23.9866 -6.47908 -6.00412
LeftHand  -12.9583 -12.0965 75.4632
RightShoulder  4.50818 9.75327 20.7287
RightArm  3.61404 30.582 46.9989
RightForeArm  14.2543 16.0832 -9.54417
RightHand  -7.33548 7.92858 -58.0889
LeftUpLeg  -53.9928 0.217225 -14.5474
LeftLeg  122.941 -24.8945 16.1372
LeftFoot  -38.1705 -0.481725 -1.70506
LeftToes  1.39127e-010 -3.60802e-011 -7.31315e-011
170
root  1.46928 19.3468 -42.2941 41.621 -10.2802 3.65499
RightUpLeg  -25.6971 -2.61975 2.74298
RightLeg  93.5179 17.3477 -12.5593
RightFoot  -19.1592 0.245839 3.57053
RightToes  5.82077e-011 -3.18055e-015 -2.98177e-016
Spine  52.7873 1.74988 -1.86602
Spine1  -11.5689 1.65385 -13.0031
HEad  -28.7462 -8.78827 8.75178
LeftShoulder1  -3.88251e-019 9.70628e-020 -3.87848e-018
LeftArm  0.715545 -20.2876 -73.1923
LeftForeArm  24.4326 -6.6123 -6.19418
LeftHand  -12.771 -11.6506 76.126
RightShoulder  4.16487 9.68476 18.8498
RightArm  5.82164 28.9209 48.9455
RightForeArm  14.1185 15.4586 -8.40493
RightHand  -7.81241 8.11479 -60.5208
LeftUpLeg  -55.3356 1.04018 -14.2169
LeftLeg  125.797 -23.4452 13.0554
LeftFoot  -40.0995 -0.632983 -2.17004
LeftToes  1.39127e-010 -3.60802e-011 -7.31315e-011
171
root  1.37693 19.1949 -41.4263 40.7068 -11.2059 2.94411
RightUpLeg  -21.8734 -2.03085 2.39135
RightLeg  90.3188 16.7367 -13.0393
RightFoot  -19.1667 0.30851 4.77999
RightToes  5.82077e-011 -3.18055e-015 -2.98177e-016
Spine  51.7865 1.52095 -2.31219
Spine1  -9.85679 1.43959 -13.287
HEad  -27.1782 -6.80546 8.46702
LeftShoulder1  -3.88251e-019 9.70628e-020 -3.87848e-018
LeftArm  -0.49187 -17.848 -70.2667
LeftForeArm  24.5061 -6.81194 -6.31787
LeftHand  -12.7761 -11.4312 76.8894
RightShoulder  3.93374 9.77865 17.3471
RightArm  4.48514 25.5139 53.1838
RightForeArm  14.1449 15.8559 -9.16936
RightHand  -8.44516 8.54535 -62.8878
LeftUpLeg  -56.5652 1.68451 -13.9997
LeftLeg  127.684 -21.5086 10.1042
LeftFoot  -38.8668 -0.938667 -3.67648
LeftToes  1.39127e-010 -3.60802e-011 -7.31315e-011
172
root  1.27443 19.0546 -40.5317 40.3418 -12.9393 2.23622
RightUpLeg  -19.0244 -0.824566 1.59346
RightLeg  87.222 16.1235 -13.9625
RightFoot  -18.4576 0.296089 5.1963
RightToes  5.82077e-011 -3.18055e-015 -2.98177e-016
Spine  50.1757 1.92057 -3.32368
Spine1  -8.00391 1.63073 -13.1516
HEad  -26.3301 -4.64454 8.24371
LeftShoulder1  -3.88251e-019 9.70628e-020 -3.87848e-018
LeftArm  -1.97924 -14.9995 -68.1094
LeftForeArm  24.6099 -6.33139 -6.30398
LeftHand  -13.1507 -11.4249 78.5425
RightShoulder  3.75298 9.96958 15.9992
RightArm  2.20813 22.8814 57.6715
RightForeArm  16.0231 15.5426 -9.9315
RightHand  -9.22671 9.2139 -65.0519
LeftUpLeg  -57.1292 3.075 -14.5929
LeftLeg  128.139 -20.4952 8.80815
LeftFoot  -33.3322 -1.20262 -6.26001
LeftToes  1.39127e-010 -3.60802e-011 -7.31315e-011
173
root  1.17993 18.9371 -39.6336 40.8408 -16.1137 1.14462
RightUpLeg  -17.4979 1.89486 0.162796
RightLeg  84.4248 15.4842 -14.7758
RightFoot  -17.7696 0.266211 5.25573
RightToes  5.82077e-011 -3.18055e-015 -2.98177e-016
Spine  48.0317 3.11897 -5.16937
Spine1  -6.3242 2.38848 -13.3772
HEad  -26.3685 -2.10469 8.65203
LeftShoulder1  -3.88251e-019 9.70628e-020 -3.87848e-018
LeftArm  -3.37326 -11.8251 -66.3811
LeftForeArm  25.185 -5.83772 -6.18738
LeftHand  -13.4455 -11.5309 79.447
RightShoulder  3.50985 9.98928 14.5465
RightArm  2.417 21.5619 61.6139
RightForeArm  17.6763 13.97 -9.45152
RightHand  -10.0839 9.81698 -67.6169
LeftUpLeg  -56.7292 5.84162 -16.0926
LeftLeg  126.556 -20.7905 9.62921
LeftFoot  -26.0836 -0.983169 -7.91534
LeftToes  1.39127e-010 -3.60802e-011 -7.31315e-011
174
root  1.16437 18.8237 -38.696 42.5652 -18.5133 0.773782
RightUpLeg  -17.4395 3.37742 -1.80202
RightLeg  81.6914 14.8296 -14.6883
RightFoot  -16.3269 0.206349 5.76634
RightToes  5.82077e-011 -3.18055e-015 -2.98177e-016
Spine  45.307 3.52855 -6.74744
Spine1  -5.43596 2.36728 -13.0209
HEad  -26.3814 0.7151 9.07745
LeftShoulder1  -3.88251e-019 9.70628e-020 -3.87848e-018
LeftArm  -4.29318 -7.52853 -64.4274
LeftForeArm  26.0142 -7.0466 -6.07088
LeftHand  -13.0567 -11.8466 76.6831
RightShoulder  3.32285 9.80945 13.6942
RightArm  4.05945 20.3312 64.9819
RightForeArm  18.68 12.6506 -8.24597
RightHand  -10.882 10.2588 -70.1894
LeftUpLeg  -56.3045 7.41324 -18.1973
LeftLeg  123.226 -21.3847 11.5187
LeftFoot  -20.6445 -0.609232 -8.38345
LeftToes  1.39127e-010 -3.60802e-011 -7.31315e-011
175
root  1.32852 18.658 -37.6561 45.4163 -16.0793 3.48993
RightUpLeg  -18.4313 -1.39367 -3.55557
RightLeg  79.111 14.3508 -13.0773
RightFoot  -13.4508 0.0429219 9.12069
RightToes  5.82077e-011 -3.18055e-015 -2.98177e-016
Spine  41.5751 0.424373 -5.09716
Spine1  -4.91834 -0.249227 -11.1794
HEad  -25.9325 2.99792 8.78572
LeftShoulder1  -3.88251e-019 9.70628e-020 -3.87848e-018
LeftArm  -4.71028 -1.96153 -62.9465
LeftForeArm  26.0792 -10.4972 -5.83311
LeftHand  -12.137 -12.3066 71.1705
RightShoulder  3.30806 9.62277 13.864
RightArm  4.7199 18.3364 67.204
RightForeArm  20.503 12.8654 -7.80542
RightHand  -11.541 10.6918 -71.9187
LeftUpLeg  -57.0812 3.11468 -20.09
LeftLeg  119.493 -21.6809 13.4568
LeftFoot  -17.9051 -0.470052 -10.0143
LeftToes  1.39127e-010 -3.60802e-011 -7.31315e-011
